<svg width="62" height="62" viewBox="0 0 62 62" fill="none" xmlns="http://www.w3.org/2000/svg">
<path d="M0 51.6666V44.4978C0 43.034 0.365972 41.6777 1.09792 40.4291C1.82986 39.1805 2.84167 38.2333 4.13333 37.5874C4.73611 37.286 5.31736 37.0062 5.87708 36.7478C6.47986 36.4895 7.10417 36.2527 7.75 36.0374V51.6666H0ZM10.3333 33.5833C8.18056 33.5833 6.35069 32.8298 4.84375 31.3228C3.33681 29.8159 2.58333 27.986 2.58333 25.8333C2.58333 23.6805 3.33681 21.8506 4.84375 20.3437C6.35069 18.8367 8.18056 18.0833 10.3333 18.0833C12.4861 18.0833 14.316 18.8367 15.8229 20.3437C17.3299 21.8506 18.0833 23.6805 18.0833 25.8333C18.0833 27.986 17.3299 29.8159 15.8229 31.3228C14.316 32.8298 12.4861 33.5833 10.3333 33.5833ZM10.3333 28.4166C11.0653 28.4166 11.6681 28.1798 12.1417 27.7062C12.6583 27.1895 12.9167 26.5652 12.9167 25.8333C12.9167 25.1013 12.6583 24.4985 12.1417 24.0249C11.6681 23.5083 11.0653 23.2499 10.3333 23.2499C9.60139 23.2499 8.97708 23.5083 8.46042 24.0249C7.98681 24.4985 7.75 25.1013 7.75 25.8333C7.75 26.5652 7.98681 27.1895 8.46042 27.7062C8.97708 28.1798 9.60139 28.4166 10.3333 28.4166ZM10.3333 51.6666V44.4333C10.3333 42.9694 10.6993 41.6346 11.4313 40.4291C12.2063 39.1805 13.2181 38.2333 14.4667 37.5874C17.1361 36.2527 19.8486 35.2624 22.6042 34.6166C25.3597 33.9277 28.1583 33.5833 31 33.5833C33.8417 33.5833 36.6403 33.9277 39.3958 34.6166C42.1514 35.2624 44.8639 36.2527 47.5333 37.5874C48.7819 38.2333 49.7722 39.1805 50.5042 40.4291C51.2792 41.6346 51.6667 42.9694 51.6667 44.4333V51.6666H10.3333ZM15.5 46.4999H46.5V44.4333C46.5 43.9596 46.3708 43.5291 46.1125 43.1416C45.8972 42.7541 45.5958 42.4527 45.2083 42.2374C42.8833 41.0749 40.5368 40.2138 38.1688 39.6541C35.8007 39.0513 33.4111 38.7499 31 38.7499C28.5889 38.7499 26.1993 39.0513 23.8313 39.6541C21.4632 40.2138 19.1167 41.0749 16.7917 42.2374C16.4042 42.4527 16.0812 42.7541 15.8229 43.1416C15.6076 43.5291 15.5 43.9596 15.5 44.4333V46.4999ZM31 30.9999C28.1583 30.9999 25.7257 29.9881 23.7021 27.9645C21.6785 25.9409 20.6667 23.5083 20.6667 20.6666C20.6667 17.8249 21.6785 15.3923 23.7021 13.3687C25.7257 11.3451 28.1583 10.3333 31 10.3333C33.8417 10.3333 36.2743 11.3451 38.2979 13.3687C40.3215 15.3923 41.3333 17.8249 41.3333 20.6666C41.3333 23.5083 40.3215 25.9409 38.2979 27.9645C36.2743 29.9881 33.8417 30.9999 31 30.9999ZM31 25.8333C32.4208 25.8333 33.6264 25.3381 34.6167 24.3478C35.65 23.3145 36.1667 22.0874 36.1667 20.6666C36.1667 19.2458 35.65 18.0402 34.6167 17.0499C33.6264 16.0166 32.4208 15.4999 31 15.4999C29.5792 15.4999 28.3521 16.0166 27.3188 17.0499C26.3285 18.0402 25.8333 19.2458 25.8333 20.6666C25.8333 22.0874 26.3285 23.3145 27.3188 24.3478C28.3521 25.3381 29.5792 25.8333 31 25.8333ZM51.6667 33.5833C49.5139 33.5833 47.684 32.8298 46.1771 31.3228C44.6701 29.8159 43.9167 27.986 43.9167 25.8333C43.9167 23.6805 44.6701 21.8506 46.1771 20.3437C47.684 18.8367 49.5139 18.0833 51.6667 18.0833C53.8194 18.0833 55.6493 18.8367 57.1563 20.3437C58.6632 21.8506 59.4167 23.6805 59.4167 25.8333C59.4167 27.986 58.6632 29.8159 57.1563 31.3228C55.6493 32.8298 53.8194 33.5833 51.6667 33.5833ZM51.6667 28.4166C52.3986 28.4166 53.0014 28.1798 53.475 27.7062C53.9917 27.1895 54.25 26.5652 54.25 25.8333C54.25 25.1013 53.9917 24.4985 53.475 24.0249C53.0014 23.5083 52.3986 23.2499 51.6667 23.2499C50.9347 23.2499 50.3104 23.5083 49.7938 24.0249C49.3201 24.4985 49.0833 25.1013 49.0833 25.8333C49.0833 26.5652 49.3201 27.1895 49.7938 27.7062C50.3104 28.1798 50.9347 28.4166 51.6667 28.4166ZM54.25 51.6666V36.0374C54.8958 36.2527 55.4986 36.4895 56.0583 36.7478C56.6611 37.0062 57.2639 37.286 57.8667 37.5874C59.1583 38.2333 60.1701 39.1805 60.9021 40.4291C61.634 41.6777 62 43.034 62 44.4978V51.6666H54.25Z" fill="white"/>
</svg>
